<?xml version="1.0" encoding="utf-8"?>
<!-- Generator: Adobe Illustrator 19.0.0, SVG Export Plug-In . SVG Version: 6.00 Build 0)  -->
<svg version="1.1" id="Layer_1" xmlns="http://www.w3.org/2000/svg" xmlns:xlink="http://www.w3.org/1999/xlink" x="0px" y="0px"
	 viewBox="-237 336.9 135.3 121.1" style="enable-background:new -237 336.9 135.3 121.1;" xml:space="preserve">
<style type="text/css">
	.st0{fill:#5B5E5E;}
	.st1{fill:#FFFFFF;}
	.st2{fill:#98D7E5;}
</style>
<rect x="-237.9" y="335.9" class="st0" width="135.2" height="121.1"/>
<path class="st1" d="M-183.7,361.9L-183.7,361.9c-8.5,0-14.6,12.8-19.5,23c-1,2.2-2,4.2-2.9,6c-0.9,1.8-1.9,3.9-3,6.1
	c-1.9,3.9-4.1,8.5-6.5,12.4c0.5,1,1,2.1,1.5,3.1c2.9-4.3,5.4-9.5,7.6-14.2c1-2.2,2-4.2,2.9-6l0,0c0.9-1.8,1.9-3.9,3-6.1
	c4.3-9,10.2-21.2,16.8-21.3c0,0,0,0,0,0c5.4,0,10.3,7.9,14.3,15.9c0.6-0.9,1.3-1.8,2-2.7C-171.7,369.6-177,361.9-183.7,361.9z"/>
<path class="st1" d="M-164,392.1c0.7,1.5,1.4,3.1,2.2,4.8c5,10.7,11.2,24.1,20.1,24.2c0,0,0,0,0.1,0c3.8,0,7-2.4,9.9-6
	c-0.5-0.9-1-1.9-1.5-2.9c-2.6,3.5-5.4,5.9-8.4,5.9h-0.1c-7.1-0.1-13.1-13-17.5-22.4c-0.8-1.7-1.5-3.4-2.3-4.9
	c-0.7-1.4-1.4-3-2.2-4.6c-0.8-1.7-1.6-3.5-2.5-5.2c-0.6,0.9-1.3,1.8-1.9,2.9c0.6,1.2,1.1,2.4,1.7,3.6
	C-165.4,389.2-164.6,390.7-164,392.1z"/>
<path class="st1" d="M-102.7,362.6v3.3c-5.2,3.2-9.9,13-13.5,20.4c-1,2.1-2,4.1-2.9,5.9c-0.9,1.8-2,4-3,6.3c-2.2,4.6-4.6,9.8-7.4,14
	c-0.5-1-1-2.1-1.5-3.1c2.3-3.8,4.4-8.2,6.3-12.2c1.1-2.3,2.1-4.5,3.1-6.4c0.9-1.7,1.8-3.7,2.9-5.8
	C-114.6,376.2-109.4,365.5-102.7,362.6z"/>
<path class="st1" d="M-216,415.1c-2.9,3.6-6.2,6.1-9.9,6.1h0c-4.6,0-8.5-3.7-12-8.7v-5.7c3.5,6.3,7.5,11.4,12,11.4h0
	c3,0,5.8-2.5,8.4-6.1C-217,413.1-216.5,414.1-216,415.1z"/>
<path class="st2" d="M-102.7,414.6v5.9c-3.7,5.8-7.8,10.3-12.7,10.5c-6.5,0.2-11.8-7.3-16.2-15.9c-0.5-0.9-1-1.9-1.5-2.9
	c-1-2-1.9-4-2.8-5.9c-0.7-1.5-1.4-2.9-2-4.3s-1.3-2.8-2-4.3c-4.4-9.3-11-23.3-17.7-23c-2.9,0.1-5.7,2.7-8.3,6.3
	c-0.6,0.9-1.3,1.8-1.9,2.9c-2.5,4-4.9,8.8-6.8,12.9c-0.9,1.9-1.8,3.8-2.7,5.4c-0.8,1.6-1.7,3.4-2.7,5.3
	c-5.1,10.4-11.4,23.3-19.7,23.6c-0.1,0-0.2,0-0.3,0c-6.4,0-11.5-7.6-15.9-16c-0.5-1-1-2-1.5-3c-0.9-1.9-1.9-3.9-2.8-5.8
	c-0.7-1.5-1.4-2.9-2-4.2c-0.6-1.3-1.3-2.8-2-4.3c-3.5-7.4-8.3-17.8-13.5-21.5v-3.5c6.6,3.3,11.9,14.5,16.3,23.8
	c0.7,1.5,1.4,2.9,2,4.2c0.6,1.3,1.3,2.8,2,4.3c0.6,1.3,1.3,2.7,2,4.2c0.5,1,1,2.1,1.5,3.1c4,7.9,9,15.9,14.1,15.7
	c6.5-0.3,12.7-12.8,17.1-21.9c0.9-1.9,1.8-3.8,2.7-5.4c0.8-1.6,1.7-3.4,2.7-5.3c2.4-4.9,5.1-10.2,8-14.7c0.6-0.9,1.3-1.8,2-2.7
	c2.9-3.6,6.1-6.1,9.7-6.3c8.7-0.3,15.2,13.5,20.5,24.7c0.7,1.5,1.4,2.9,2,4.2c0.6,1.3,1.3,2.8,2,4.3c0.6,1.3,1.3,2.8,2,4.3
	c0.5,1,1,2,1.5,3.1c4,7.9,9,15.8,14.1,15.6C-110.9,427.9-106.5,421.6-102.7,414.6z"/>
</svg>
